<svg width="20" height="21" viewBox="0 0 20 21" fill="none" xmlns="http://www.w3.org/2000/svg">
<g id="Icon">
<path id="Vector" d="M16.94 3.34009H0.7C0.5 3.36675 0.333333 3.46009 0.2 3.62009C0.0666667 3.78009 0 3.96009 0 4.16009C0 4.36009 0.0666667 4.54342 0.2 4.71009C0.333333 4.87675 0.5 4.97342 0.7 5.00009H3.92L3.34 12.3801V12.5201C3.34 12.9734 3.50333 13.3634 3.83 13.6901C4.15667 14.0168 4.54667 14.1801 5 14.1801H15.22C15.62 14.1801 15.97 14.0568 16.27 13.8101C16.57 13.5634 16.76 13.2601 16.84 12.9001L18.56 5.38009C18.5867 5.22009 18.6 5.09342 18.6 5.00009C18.6 4.53342 18.44 4.14009 18.12 3.82009C17.8 3.50009 17.4067 3.34009 16.94 3.34009ZM15.22 12.5001H5L5.58 5.00009H16.94L15.22 12.5001ZM6.54 18.3401C7.00667 18.3401 7.40333 18.1768 7.73 17.8501C8.05667 17.5234 8.22 17.1268 8.22 16.6601C8.22 16.1934 8.05667 15.8001 7.73 15.4801C7.40333 15.1601 7.00667 15.0001 6.54 15.0001C6.08667 15.0001 5.69667 15.1601 5.37 15.4801C5.04333 15.8001 4.88 16.1934 4.88 16.6601C4.88 17.1268 5.04333 17.5234 5.37 17.8501C5.69667 18.1768 6.08667 18.3401 6.54 18.3401ZM14.04 18.3401C14.5067 18.3401 14.9033 18.1768 15.23 17.8501C15.5567 17.5234 15.72 17.1268 15.72 16.6601C15.72 16.1934 15.5567 15.8001 15.23 15.4801C14.9033 15.1601 14.5067 15.0001 14.04 15.0001C13.5867 15.0001 13.1967 15.1601 12.87 15.4801C12.5433 15.8001 12.38 16.1934 12.38 16.6601C12.38 17.1268 12.5433 17.5234 12.87 17.8501C13.1967 18.1768 13.5867 18.3401 14.04 18.3401Z" fill="white"/>
</g>
</svg>
